Coordinates
version=1
nRows=26
nColumns=18
inDegrees=yes

Units are S.I. units (second, meters, Newtons, ...)
Angles are in degrees.

endheader
time	ground_thorax_rot_x	ground_thorax_rot_y	ground_thorax_rot_z	ground_thorax_tx	ground_thorax_ty	ground_thorax_tz	clav_prot	clav_elev	scapula_abduction	scapula_elevation	scapula_upward_rot	scapula_winging	plane_elv	shoulder_elv	axial_rot	elbow_flexion	pro_sup
      2.07000000	      0.36441967	      0.27957720	     -8.32332388	     -0.00423131	      0.00403036	     -0.00078352	    -38.97110003	      6.34721857	    -23.33142010	     -3.08523470	     41.34342698	     -8.06073614	      4.92226560	     50.19754497	      2.62669869	      0.00000000	     34.32000000
      2.08000000	      0.07030504	      0.33848121	     -8.26068256	     -0.00423131	      0.00403036	     -0.00078352	    -39.03351430	      6.30498976	    -23.25559422	     -3.14444565	     41.54530754	     -8.11361167	      4.98828255	     50.47083895	      2.64640568	      0.00000000	     34.32000000
      2.09000000	      0.39655076	     -0.00998816	     -8.35931589	     -0.00423131	      0.00403036	     -0.00078352	    -38.89882423	      6.52105274	    -22.55526225	     -3.07231166	     42.28039105	     -8.23173068	      5.20908268	     51.22092669	      2.57307721	      0.00000000	     34.32000000
      2.10000000	      0.35415944	     -0.06844666	     -8.33340993	     -0.00423131	      0.00403036	     -0.00078352	    -38.96179023	      6.64658111	    -22.42844816	     -3.03148308	     42.62930852	     -8.35416555	      5.67349651	     51.71401483	      2.45349698	      0.00000000	     34.32000000
      2.11000000	      0.32458400	      0.00217287	     -8.30156686	     -0.00423131	      0.00403036	     -0.00078352	    -39.08151405	      6.77433822	    -22.48909010	     -2.97862329	     42.85212980	     -8.48406843	      6.23850390	     52.19040093	      2.36964845	      0.00000000	     34.32000000
      2.12000000	     -0.01790314	      0.33731990	     -8.26352348	     -0.00423131	      0.00403036	     -0.00078352	    -39.11756044	      6.49377683	    -22.94805832	     -3.09943381	     42.20007745	     -8.31731218	      6.90267673	     53.30026238	      2.17668540	      0.00000000	     34.32000000
      2.13000000	      0.32624873	      0.18993160	     -8.33083295	     -0.00423131	      0.00403036	     -0.00078352	    -39.24654384	      6.92503080	    -22.51063653	     -2.93051228	     43.22562352	     -8.66686839	      6.94100843	     53.13235880	      2.32269771	      0.00000000	     34.32000000
      2.14000000	      0.13030149	      0.24156960	     -8.32875608	     -0.00423131	      0.00403036	     -0.00078352	    -39.30846921	      6.88611072	    -22.42786542	     -2.98603714	     43.43553609	     -8.71980488	      7.00951212	     53.50137798	      2.36411977	      0.00000000	     34.32000000
      2.15000000	     -0.18158574	      0.42029129	     -8.30310428	     -0.00423131	      0.00403036	     -0.00078352	    -39.23740089	      6.58920131	    -22.67048664	     -3.11806283	     42.84086120	     -8.50740595	      7.41509692	     54.95693668	      2.19860892	      0.00000000	     34.32000000
      2.16000000	      0.36379219	     -0.06702040	     -8.38361825	     -0.00423131	      0.00403036	     -0.00078352	    -39.29092774	      7.13994822	    -21.67804942	     -2.92290501	     44.47781578	     -8.94069147	      7.13579759	     54.86604881	      2.09233632	      0.00000000	     34.32000000
      2.17000000	     -0.09666310	      0.15098904	     -8.29577809	     -0.00423131	      0.00403036	     -0.00078352	    -39.23298375	      6.81076183	    -22.03685187	     -3.06665742	     43.74826450	     -8.71016019	      7.68394381	     56.20567846	      1.94231604	      0.00000000	     34.32000000
      2.18000000	      0.32834057	     -0.26290346	     -8.33527480	     -0.00423131	      0.00403036	     -0.00078352	    -39.28673419	      7.43236816	    -21.28228273	     -2.78718628	     45.11207491	     -9.11166483	      7.59323421	     55.84615080	      1.98332733	      0.00000000	     34.32000000
      2.19000000	     -0.06386676	     -0.07608750	     -8.36044322	     -0.00423131	      0.00403036	     -0.00078352	    -39.18932859	      7.10203503	    -21.64124027	     -2.92245100	     44.30495605	     -8.85396978	      8.10312467	     57.19914950	      1.88222975	      0.00000000	     34.32000000
      2.20000000	      0.39237440	     -0.48014291	     -8.40378352	     -0.00423131	      0.00403036	     -0.00078352	    -39.27917213	      7.68381298	    -20.91465972	     -2.67111952	     45.68272184	     -9.25687237	      8.00999413	     56.84573332	      2.05372059	      0.00000000	     34.32000000
      2.21000000	      0.21892541	     -0.49631044	     -8.40690424	     -0.00423131	      0.00403036	     -0.00078352	    -39.39836723	      7.54885537	    -20.81452516	     -2.80266700	     45.97948676	     -9.32213196	      8.19219435	     57.32842133	      2.10060464	      0.00000000	     34.32000000
      2.22000000	     -0.10178198	     -0.23744265	     -8.44313150	     -0.00423131	      0.00403036	     -0.00078352	    -39.41902295	      7.13321727	    -21.13315939	     -3.03490667	     45.41945974	     -9.14013836	      8.57928511	     58.81946928	      1.96078814	      0.00000000	     34.32000000
      2.23000000	      0.45433582	     -0.52559280	     -8.50933322	     -0.00423131	      0.00403036	     -0.00078352	    -39.65549072	      7.72152738	    -20.46938670	     -2.80143752	     47.00384812	     -9.63689397	      8.55501954	     58.73104330	      1.69320672	      0.00000000	     34.32000000
      2.24000000	      0.23537540	     -0.55780619	     -8.54887833	     -0.00423131	      0.00403036	     -0.00078352	    -39.69364863	      7.69517712	    -20.32754238	     -2.84429232	     47.24510454	     -9.68044616	      8.82398505	     59.16663550	      1.71436057	      0.00000000	     34.32000000
      2.25000000	     -0.15534473	     -0.51818014	     -8.54068439	     -0.00423131	      0.00403036	     -0.00078352	    -39.52091225	      7.49049842	    -20.60743454	     -2.89816923	     46.45494913	     -9.43302986	      9.61385717	     60.43227908	      1.57661599	      0.00000000	     34.32000000
      2.26000000	      0.46632479	     -1.03303738	     -8.59340074	     -0.00423131	      0.00403036	     -0.00078352	    -39.60680696	      8.14778472	    -19.78612306	     -2.59080766	     47.96914591	     -9.84807651	      9.76657977	     60.13519391	      1.53308690	      0.00000000	     34.32000000
      2.27000000	     -0.07596379	     -0.73982406	     -8.52423139	     -0.00423131	      0.00403036	     -0.00078352	    -39.51400552	      7.71078541	    -20.10025597	     -2.81370425	     47.18444440	     -9.58570881	     10.05299008	     61.47381031	      1.45621390	      0.00000000	     34.32000000
      2.28000000	      0.51150143	     -1.14385219	     -8.60821088	     -0.00423131	      0.00403036	     -0.00078352	    -39.64135828	      8.17507578	    -19.11492986	     -2.65132011	     48.88931956	     -9.98417896	      9.66671054	     61.38875851	      1.37112736	      0.00000000	     34.32000000
      2.29000000	      0.28428452	     -1.10914305	     -8.55743725	     -0.00423131	      0.00403036	     -0.00078352	    -39.75405023	      8.05493643	    -18.99850446	     -2.76713074	     49.20036495	    -10.04561278	      9.83864183	     61.85645029	      1.39666576	      0.00000000	     34.32000000
      2.30000000	      0.67799194	     -1.28850178	     -8.72802556	     -0.00423131	      0.00403036	     -0.00078352	    -39.89032529	      8.32339157	    -18.81397536	     -2.64255763	     49.82432916	    -10.25669552	     10.29497165	     62.59049276	      1.24071637	      0.00000000	     34.32000000
      2.31000000	      0.43796531	     -1.47528192	     -8.76191938	     -0.00423131	      0.00403036	     -0.00078352	    -39.87778914	      8.37957251	    -18.71979456	     -2.61196077	     49.94345622	    -10.27775424	     10.71791225	     62.84482038	      1.24571817	      0.00000000	     34.32000000
      2.32000000	      0.58991865	     -1.52793101	     -8.76614816	     -0.00423131	      0.00403036	     -0.00078352	    -39.99363409	      8.66469100	    -18.84412058	     -2.44206560	     50.14994759	    -10.43408647	     11.31273218	     63.28071814	      1.22644019	      0.00000000	     34.32000000
